<svg height='100px' width='100px'  fill="#ffffff" xmlns="http://www.w3.org/2000/svg" xmlns:xlink="http://www.w3.org/1999/xlink" xml:space="preserve" version="1.1" style="shape-rendering:geometricPrecision;text-rendering:geometricPrecision;image-rendering:optimizeQuality;" viewBox="0 0 624 748" x="0px" y="0px" fill-rule="evenodd" clip-rule="evenodd"><defs><style type="text/css">
   
    .fil0 {fill:#ffffff}
    .fil1 {fill:#ffffff;fill-rule:nonzero}
   
  </style></defs><g><path class="fil0" d="M0 658l165 -135c27,-12 124,51 180,1 -17,-21 -37,-27 -44,-65 137,28 196,8 244,-169 -37,4 -78,1 -95,-24 108,-51 141,-9 153,-111 1,-7 -66,-1 -66,-9 1,-5 53,-37 56,-41 13,-20 30,-68 31,-105 -167,72 -500,489 -624,658z"></path><path class="fil1" d="M273 651c84,7 112,84 183,77 76,-8 106,-32 106,-32l12 16c0,0 -34,27 -116,35 -83,8 -106,-70 -187,-76 -85,-6 -219,129 -270,-8 74,110 182,-18 272,-12z"></path></g></svg>